<mxfile host="www.draw.io" modified="2020-02-02T18:02:33.213Z" agent="Mozilla/5.0 (Macintosh; Intel Mac OS X 10_15_2) AppleWebKit/537.36 (KHTML, like Gecko) Chrome/79.0.3945.130 Safari/537.36" etag="Hx329ItY06bnmDmVNIG9" version="12.6.4" type="github">
  <diagram name="Page-1" id="ad52d381-51e7-2e0d-a935-2d0ddd2fd229">
    <mxGraphModel dx="946" dy="2228" grid="1" gridSize="10" guides="1" tooltips="1" connect="1" arrows="1" fold="1" page="1" pageScale="1" pageWidth="2336" pageHeight="1654" background="#9AC7BF" math="0" shadow="0">
      <root>
        <mxCell id="0"/>
        <mxCell id="1" parent="0"/>
        <mxCell id="lcUeHcnI_oaIsX3chBQn-23" value="" style="rounded=1;whiteSpace=wrap;html=1;strokeWidth=2;fontFamily=Verdana;fontSize=12;fillColor=#dae8fc;strokeColor=#6c8ebf;" parent="1" vertex="1">
          <mxGeometry x="40" y="-800" width="1080" height="2320" as="geometry"/>
        </mxCell>
        <mxCell id="lcUeHcnI_oaIsX3chBQn-24" value="" style="group" parent="1" vertex="1" connectable="0">
          <mxGeometry x="30" y="-720" width="1080" height="410" as="geometry"/>
        </mxCell>
        <mxCell id="lcUeHcnI_oaIsX3chBQn-12" value="For one thing, the purpose of copyright is to give creators an incentive to create new works – instead of only reproducing others&#39; work." style="shape=callout;whiteSpace=wrap;html=1;perimeter=calloutPerimeter;strokeWidth=2;fontFamily=Verdana;" parent="lcUeHcnI_oaIsX3chBQn-24" vertex="1">
          <mxGeometry x="752.3595505617978" y="30" width="254.8314606741573" height="120" as="geometry"/>
        </mxCell>
        <mxCell id="lcUeHcnI_oaIsX3chBQn-13" value="What is the purpose of copyright?" style="shape=callout;whiteSpace=wrap;html=1;perimeter=calloutPerimeter;strokeWidth=2;fontFamily=Verdana;flipV=0;flipH=1;" parent="lcUeHcnI_oaIsX3chBQn-24" vertex="1">
          <mxGeometry x="497.52808988764053" y="20" width="230.56179775280899" height="80" as="geometry"/>
        </mxCell>
        <mxCell id="lcUeHcnI_oaIsX3chBQn-17" value="&lt;h1&gt;&lt;font style=&quot;font-size: 24px&quot;&gt;Copyright Law&lt;/font&gt;&lt;/h1&gt;&lt;p style=&quot;font-size: 15px&quot;&gt;&lt;font style=&quot;font-size: 15px&quot;&gt;Copyright law regulates how, by whom, and under what conditions a creative work can be used for what purpose.&amp;nbsp;&lt;/font&gt;&lt;/p&gt;&lt;p style=&quot;font-size: 15px&quot;&gt;&lt;font style=&quot;font-size: 15px&quot;&gt;First created in the 18th century in Great Britain, it exists today with some variation all around the world. It is, however, not an &#39;international&#39; law but enacted and enforced through national laws.&amp;nbsp;&lt;/font&gt;&lt;/p&gt;&lt;p style=&quot;font-size: 15px&quot;&gt;&lt;font style=&quot;font-size: 15px&quot;&gt;Since the 19th century, efforts have been made to standardize copyright law globally and today we have pretty similar copyright law in the vast majority of countries.&lt;/font&gt;&lt;/p&gt;&lt;p style=&quot;font-size: 15px&quot;&gt;&lt;font style=&quot;font-size: 15px&quot;&gt;In the Berne Convention (an international copyright treaty dating back to 1886) it is stipulated that copyright is granted automatically but that copyright protection is limited to the lifetime of a creator plus 50 years.&amp;nbsp;&lt;/font&gt;&lt;/p&gt;" style="text;html=1;strokeColor=none;fillColor=none;spacing=5;spacingTop=-20;whiteSpace=wrap;overflow=hidden;rounded=0;fontFamily=Verdana;fontSize=12;" parent="lcUeHcnI_oaIsX3chBQn-24" vertex="1">
          <mxGeometry x="24.27" y="20" width="412.58" height="390" as="geometry"/>
        </mxCell>
        <mxCell id="lcUeHcnI_oaIsX3chBQn-18" value="That sounds like a rather Utilitarian rationale. Are there any alternatives?" style="shape=callout;whiteSpace=wrap;html=1;perimeter=calloutPerimeter;strokeWidth=2;fontFamily=Verdana;fontSize=12;flipH=1;" parent="lcUeHcnI_oaIsX3chBQn-24" vertex="1">
          <mxGeometry x="497.52808988764053" y="110" width="230.56179775280899" height="90" as="geometry"/>
        </mxCell>
        <mxCell id="lcUeHcnI_oaIsX3chBQn-19" value="Yes, what is today most often considered to be the main purpose of copyright is the protection of authors&#39; rights.&amp;nbsp;" style="shape=callout;whiteSpace=wrap;html=1;perimeter=calloutPerimeter;strokeWidth=2;fontFamily=Verdana;fontSize=12;position2=0.48;" parent="lcUeHcnI_oaIsX3chBQn-24" vertex="1">
          <mxGeometry x="752.3595505617978" y="160" width="254.8314606741573" height="110" as="geometry"/>
        </mxCell>
        <mxCell id="lcUeHcnI_oaIsX3chBQn-20" value="Do you mean to ensure that the creator of a work is attributed and no one can edit it or change it around without permission?" style="shape=callout;whiteSpace=wrap;html=1;perimeter=calloutPerimeter;strokeWidth=2;fontFamily=Verdana;fontSize=12;flipH=1;" parent="lcUeHcnI_oaIsX3chBQn-24" vertex="1">
          <mxGeometry x="497.52808988764053" y="210" width="230.56179775280899" height="120" as="geometry"/>
        </mxCell>
        <mxCell id="lcUeHcnI_oaIsX3chBQn-21" value="Yes, exactly! Some countries even grant moral rights in order to protect the relation between a creator and their work.&amp;nbsp;" style="shape=callout;whiteSpace=wrap;html=1;perimeter=calloutPerimeter;strokeWidth=2;fontFamily=Verdana;fontSize=12;" parent="lcUeHcnI_oaIsX3chBQn-24" vertex="1">
          <mxGeometry x="752.3595505617978" y="280" width="254.8314606741573" height="100" as="geometry"/>
        </mxCell>
        <mxCell id="lcUeHcnI_oaIsX3chBQn-26" value="&lt;h1&gt;&lt;span&gt;Objects of Copyright Law&lt;/span&gt;&lt;/h1&gt;&lt;p&gt;&lt;font size=&quot;1&quot;&gt;&lt;span style=&quot;font-weight: 400&quot;&gt;Copyright almost always applies to original works, which means they have to be unique (and not a copy of someone else&#39;s work) and they have to be &quot;fixed in a tangible medium&quot; – which is a fancy way of saying that they have to be written down, or recorded, or painted on something, or saved on a computer, etc.).&lt;/span&gt;&lt;/font&gt;&lt;/p&gt;&lt;div&gt;&lt;font size=&quot;1&quot;&gt;Almost all countries in the world recognize literature and artistic work as copyrightable, but also translations and adaptations, as well as collections of literature and artwork. Some countries also recognize software, industrial design and models, and applied art to be copyrightable.&lt;/font&gt;&lt;/div&gt;" style="text;html=1;strokeColor=none;fillColor=none;spacing=5;spacingTop=-20;whiteSpace=wrap;overflow=hidden;rounded=0;fontFamily=Verdana;fontSize=12;" parent="1" vertex="1">
          <mxGeometry x="660" y="-290" width="420" height="290" as="geometry"/>
        </mxCell>
        <mxCell id="lcUeHcnI_oaIsX3chBQn-27" value="Oh, that&#39;s very interesting! You know, I had this idea and I told it to a friend and then someone else overheard us and then made it into an art installation. But I have the copyright!" style="shape=callout;whiteSpace=wrap;html=1;perimeter=calloutPerimeter;strokeWidth=2;fontFamily=Verdana;fontSize=12;flipH=1;" parent="1" vertex="1">
          <mxGeometry x="80" y="-270" width="250" height="120" as="geometry"/>
        </mxCell>
        <mxCell id="lcUeHcnI_oaIsX3chBQn-28" value="I&#39;m sorry this happened to you! However, ideas are not protected by copyright. You see, it is only the &quot;expression&quot; that is protected by copyright." style="shape=callout;whiteSpace=wrap;html=1;perimeter=calloutPerimeter;strokeWidth=2;fontFamily=Verdana;fontSize=12;" parent="1" vertex="1">
          <mxGeometry x="360" y="-250" width="250" height="120" as="geometry"/>
        </mxCell>
        <mxCell id="lcUeHcnI_oaIsX3chBQn-29" value="I understand. Is there anything else I should know that is usually not protected by copyright?" style="shape=callout;whiteSpace=wrap;html=1;perimeter=calloutPerimeter;strokeWidth=2;fontFamily=Verdana;fontSize=12;flipH=1;" parent="1" vertex="1">
          <mxGeometry x="80" y="-140" width="250" height="100" as="geometry"/>
        </mxCell>
        <mxCell id="lcUeHcnI_oaIsX3chBQn-30" value="Yes, there are quite a few things! An important one is &quot;Facts&quot; - they cannot be protected. If you find out that it wasn&#39;t Leonarda da Vinci who painted the Mona Lise and share this knowledge, then everyone can use this information however they like. They don&#39;t have to credit you – and you cannot forbid anyone from using it." style="shape=callout;whiteSpace=wrap;html=1;perimeter=calloutPerimeter;strokeWidth=2;fontFamily=Verdana;fontSize=12;" parent="1" vertex="1">
          <mxGeometry x="360" y="-120" width="250" height="170" as="geometry"/>
        </mxCell>
        <mxCell id="lcUeHcnI_oaIsX3chBQn-31" value="Ok, but &#39;facts&#39; are not &#39;expressions&#39;. Is really every expression protected by copyright?" style="shape=callout;whiteSpace=wrap;html=1;perimeter=calloutPerimeter;strokeWidth=2;fontFamily=Verdana;fontSize=12;flipH=1;" parent="1" vertex="1">
          <mxGeometry x="80" y="-30" width="250" height="80" as="geometry"/>
        </mxCell>
        <mxCell id="lcUeHcnI_oaIsX3chBQn-32" value="No, you are right. Law texts, for example, are not protected. And in some countries, the work that is created by government employees is also not copyrightable. It is automatically part of the public domain." style="shape=callout;whiteSpace=wrap;html=1;perimeter=calloutPerimeter;strokeWidth=2;fontFamily=Verdana;fontSize=12;" parent="1" vertex="1">
          <mxGeometry x="360" y="60" width="250" height="130" as="geometry"/>
        </mxCell>
        <mxCell id="lcUeHcnI_oaIsX3chBQn-33" value="&lt;h1&gt;Other Types of Intellectual Property&lt;/h1&gt;&lt;p&gt;&lt;font style=&quot;font-size: 15px&quot;&gt;Not all forms of human creative expression fall under the copyright. There are other – related – laws that protect different types of intellectual property, like the Trademark Law and the Patent Law. Trademark law helps avoid confusion around brands, company names, and symbols, as well as designs. Patent law grants exclusive rights to make and sell inventions for a defined period of time.&amp;nbsp;&amp;nbsp;&lt;/font&gt;&lt;/p&gt;" style="text;html=1;strokeColor=none;fillColor=none;spacing=5;spacingTop=-20;whiteSpace=wrap;overflow=hidden;rounded=0;fontFamily=Verdana;fontSize=12;" parent="1" vertex="1">
          <mxGeometry x="660" y="20" width="420" height="230" as="geometry"/>
        </mxCell>
        <mxCell id="lcUeHcnI_oaIsX3chBQn-34" value="&quot;Public Domain&quot; - what is that?" style="shape=callout;whiteSpace=wrap;html=1;perimeter=calloutPerimeter;strokeWidth=2;fontFamily=Verdana;fontSize=12;flipH=1;" parent="1" vertex="1">
          <mxGeometry x="80" y="160" width="250" height="70" as="geometry"/>
        </mxCell>
        <mxCell id="lcUeHcnI_oaIsX3chBQn-35" value="The Public Domain – that is all the creative works mankind has ever created and that have fallen out of copyright – or that were never protected by copyright to begin with. Even though we often still attribute the most renown works to their creators, everyone anywhere in the world can do with these works whatever they want!" style="shape=callout;whiteSpace=wrap;html=1;perimeter=calloutPerimeter;strokeWidth=2;fontFamily=Verdana;fontSize=12;" parent="1" vertex="1">
          <mxGeometry x="360" y="210" width="250" height="160" as="geometry"/>
        </mxCell>
        <mxCell id="lcUeHcnI_oaIsX3chBQn-36" value="That sounds both really cool and a bit sketchy: How can something fall &#39;out of copyright&#39;? Do I have to do anything to get my works copyrighted? Do I have to pay a fee?" style="shape=callout;whiteSpace=wrap;html=1;perimeter=calloutPerimeter;strokeWidth=2;fontFamily=Verdana;fontSize=12;flipH=1;" parent="1" vertex="1">
          <mxGeometry x="80" y="300" width="250" height="120" as="geometry"/>
        </mxCell>
        <mxCell id="lcUeHcnI_oaIsX3chBQn-37" value="Don&#39;t worry! In almost all countries in the world copyright is granted automatically, so you don&#39;t have to do anything to get it. But keep in mind what we have been talking about before, that you have to &#39;fix it in a tangible medium&#39; :)" style="shape=callout;whiteSpace=wrap;html=1;perimeter=calloutPerimeter;strokeWidth=2;fontFamily=Verdana;fontSize=12;" parent="1" vertex="1">
          <mxGeometry x="360" y="390" width="250" height="130" as="geometry"/>
        </mxCell>
        <mxCell id="lcUeHcnI_oaIsX3chBQn-38" value="Phew!&amp;nbsp;&lt;br&gt;But you still haven&#39;t told me how copyright ends…" style="shape=callout;whiteSpace=wrap;html=1;perimeter=calloutPerimeter;strokeWidth=2;fontFamily=Verdana;fontSize=12;flipH=1;" parent="1" vertex="1">
          <mxGeometry x="80" y="450" width="250" height="150" as="geometry"/>
        </mxCell>
        <mxCell id="lcUeHcnI_oaIsX3chBQn-39" value="Right. You see, copyright is &#39;attached&#39; to a creator, that means, it will eventually expire. Since quite some time ago, it has been such that copyright of a work expires 50 years after the death of its creator. But there are many countries where the copyright term is actually life + 70 years. In Mexico, it is even life + 100 years!" style="shape=callout;whiteSpace=wrap;html=1;perimeter=calloutPerimeter;strokeWidth=2;fontFamily=Verdana;fontSize=12;" parent="1" vertex="1">
          <mxGeometry x="360" y="520" width="250" height="170" as="geometry"/>
        </mxCell>
        <mxCell id="lcUeHcnI_oaIsX3chBQn-40" value="So, the creator must be long dead before a work will enter the public domain. That&#39;s quite a long period in which no one can do anything with it. What if it is so important that everyone should have seen it or read it? What about the people who cannot afford buying it?" style="shape=callout;whiteSpace=wrap;html=1;perimeter=calloutPerimeter;strokeWidth=2;fontFamily=Verdana;fontSize=12;flipH=1;" parent="1" vertex="1">
          <mxGeometry x="80" y="620" width="250" height="170" as="geometry"/>
        </mxCell>
        <mxCell id="lcUeHcnI_oaIsX3chBQn-41" value="&lt;h1&gt;Exceptions and Limitations to Copyright&lt;/h1&gt;&lt;p style=&quot;font-size: 15px&quot;&gt;Some uses of a copyrighted work do not require the permission of its creator or the rights holder. This means that if one is using a work still under copyright, the copyright is not infringed. The law tries to find a balance between the rights of the creator to protect their work and exploit it – and the public and its interest in having access to and making use of the work.&lt;/p&gt;&lt;p style=&quot;font-size: 15px&quot;&gt;Exceptions to copyright are different from country to country. Some countries list specific activities that are allowed, while others have guidelines about what is allowed that eventually need to be determined in a court of law.&lt;/p&gt;&lt;p style=&quot;font-size: 15px&quot;&gt;Most countries also have compulsory licensing schemes that are installed to make certain uses of works easier without risking copyright infringement. This is often done by paying a fee.&lt;/p&gt;" style="text;html=1;strokeColor=none;fillColor=none;spacing=5;spacingTop=-20;whiteSpace=wrap;overflow=hidden;rounded=0;fontFamily=Verdana;fontSize=12;" parent="1" vertex="1">
          <mxGeometry x="660" y="270" width="420" height="430" as="geometry"/>
        </mxCell>
        <mxCell id="lcUeHcnI_oaIsX3chBQn-42" value="You are right, it is a long time. And even though the copyright is there to protect the intellectual property of creators and to stimulate the creation of new works, there are also quite a few important exceptions and limitations to copyright." style="shape=callout;whiteSpace=wrap;html=1;perimeter=calloutPerimeter;strokeWidth=2;fontFamily=Verdana;fontSize=12;" parent="1" vertex="1">
          <mxGeometry x="360" y="710" width="250" height="140" as="geometry"/>
        </mxCell>
        <mxCell id="lcUeHcnI_oaIsX3chBQn-43" value="You mean… like citations? I have done that in the article that I wrote for the community magazine!" style="shape=callout;whiteSpace=wrap;html=1;perimeter=calloutPerimeter;strokeWidth=2;fontFamily=Verdana;fontSize=12;flipH=1;" parent="1" vertex="1">
          <mxGeometry x="80" y="810" width="250" height="100" as="geometry"/>
        </mxCell>
        <mxCell id="lcUeHcnI_oaIsX3chBQn-44" value="Yes, citations are always allowed. Copyright doesn&#39;t extend to that. There is much more though! You probably have heard about &#39;Fair Use&#39;. Fair Use is a legal principal in the United States that allows certain uses of copyrighted material without asking for permission. Most countries in the world have a version of it, but there can be quite a few differences." style="shape=callout;whiteSpace=wrap;html=1;perimeter=calloutPerimeter;strokeWidth=2;fontFamily=Verdana;fontSize=12;" parent="1" vertex="1">
          <mxGeometry x="360" y="860" width="250" height="190" as="geometry"/>
        </mxCell>
        <mxCell id="lcUeHcnI_oaIsX3chBQn-45" value="I live in Norway. Do you happen to know if Norway also has something like fair use?" style="shape=callout;whiteSpace=wrap;html=1;perimeter=calloutPerimeter;strokeWidth=2;fontFamily=Verdana;fontSize=12;flipH=1;" parent="1" vertex="1">
          <mxGeometry x="80" y="990" width="250" height="90" as="geometry"/>
        </mxCell>
        <mxCell id="lcUeHcnI_oaIsX3chBQn-46" value="In Norway, copyright is called &quot;opphavsrett&quot; and it is part of something called &quot;Åndsverksloven&quot;, the law about intellectual works. It gives creators a lot of protection of their works, but it also is quite clear about what fair use one can make. &lt;br&gt;For example, you can always cite a work and you are always allowed to make a private copy of it for your own use. You are also always allowed to adapt a work to make it accessible for people with disabilities.&amp;nbsp;" style="shape=callout;whiteSpace=wrap;html=1;perimeter=calloutPerimeter;strokeWidth=2;fontFamily=Verdana;fontSize=12;" parent="1" vertex="1">
          <mxGeometry x="360" y="1070" width="250" height="230" as="geometry"/>
        </mxCell>
        <mxCell id="lcUeHcnI_oaIsX3chBQn-47" value="Thank you! Do you know where I can find out more about this?" style="shape=callout;whiteSpace=wrap;html=1;perimeter=calloutPerimeter;strokeWidth=2;fontFamily=Verdana;fontSize=12;flipH=1;" parent="1" vertex="1">
          <mxGeometry x="80" y="1120" width="250" height="80" as="geometry"/>
        </mxCell>
        <mxCell id="lcUeHcnI_oaIsX3chBQn-48" value="I recommend that you read up about copyright law on Wikipedia, the information there is trustworthy and up to date and actually much easier to read than legal texts…&lt;br&gt;For the Norwegian laws, there is a website called lovdata.no where you can search for åndsverksloven. It even has a few examples to help you understand!" style="shape=callout;whiteSpace=wrap;html=1;perimeter=calloutPerimeter;strokeWidth=2;fontFamily=Verdana;fontSize=12;" parent="1" vertex="1">
          <mxGeometry x="360" y="1310" width="250" height="170" as="geometry"/>
        </mxCell>
        <mxCell id="lcUeHcnI_oaIsX3chBQn-49" value="&lt;h1&gt;Copyright in Norway&lt;/h1&gt;&lt;p style=&quot;font-size: 15px&quot;&gt;Norwegian copyright differs in certain regards from the minimum standards set by the Berne Convention and from copyright in the English-speaking parts of the world and the former Commonwealth.&lt;/p&gt;&lt;p style=&quot;font-size: 15px&quot;&gt;The copyright term is the life of the creator plus 70 years. Copyright or &quot;opphavsrett&quot; is part of a set of intellectual work laws, called &quot;åndsverksloven&quot;, which has been significantly revised in 2018. Among other things, it also regulates software, code, and data.&lt;/p&gt;&lt;p style=&quot;font-size: 15px&quot;&gt;The law in its latest version can be accessed online via the link:&lt;/p&gt;&lt;font style=&quot;font-size: 15px&quot;&gt;&lt;a href=&quot;https://lovdata.no/dokument/NL/lov/2018-06-15-40&quot;&gt;https://lovdata.no/dokument/NL/lov/2018-06-15-40&lt;/a&gt;&lt;br&gt;&lt;br&gt;Even though Norwegian copyright can be seen as rather restrictive and its term is rather long, there are quite a few exceptions and limitations to it. Apart from the freedom to cite from a work, it is also permitted to parody a work and to critique it. An important exception is the reproduction of works under copyright for private use, as it is explicated in Article 26. Another important exception is the reproduction or broadcasting of art in the public sphere: it is allowed without permission to photograph art pieces found in public places and to spread them via Social Media or use them in articles in the Wikipedia.&lt;br&gt;&lt;br&gt;Another example is the rule for legal deposit, or &quot;pliktavlevering&quot;, where a copy of all publicly available works has to be delivered to the National Library of Norway where it enters the public record. With the digitization program of the National Library, all these records are made digitally available, too. Within the borders of Norway, every person has access to all records in digital form up to the year 2000. All newer content can be accessed in the National Library or in public libraries.&amp;nbsp;&lt;br&gt;&lt;/font&gt;" style="text;html=1;strokeColor=none;fillColor=none;spacing=5;spacingTop=-20;whiteSpace=wrap;overflow=hidden;rounded=0;fontFamily=Verdana;fontSize=12;" parent="1" vertex="1">
          <mxGeometry x="660" y="710" width="420" height="777" as="geometry"/>
        </mxCell>
        <mxCell id="lcUeHcnI_oaIsX3chBQn-14" value="Copyright Law" style="text;html=1;strokeColor=none;fillColor=none;align=center;verticalAlign=middle;whiteSpace=wrap;rounded=0;fontFamily=Verdana;fontSize=26;fontStyle=1" parent="1" vertex="1">
          <mxGeometry x="410" y="-800" width="228.86" height="40" as="geometry"/>
        </mxCell>
        <mxCell id="lcUeHcnI_oaIsX3chBQn-15" value="– A Conversation" style="text;html=1;strokeColor=none;fillColor=none;align=center;verticalAlign=middle;whiteSpace=wrap;rounded=0;fontFamily=Verdana;fontSize=26;fontStyle=1" parent="1" vertex="1">
          <mxGeometry x="508.86" y="-760" width="261.14" height="20" as="geometry"/>
        </mxCell>
        <mxCell id="lcUeHcnI_oaIsX3chBQn-50" value="" style="shape=note;whiteSpace=wrap;html=1;backgroundOutline=1;darkOpacity=0.05;strokeWidth=2;fontFamily=Verdana;fontSize=12;" parent="1" vertex="1">
          <mxGeometry x="80" y="1240" width="250" height="210" as="geometry"/>
        </mxCell>
        <UserObject label="&lt;font style=&quot;font-size: 10px&quot;&gt;Infographic created by Annika Rockenberger.&lt;br&gt;Licensed under a CC-BY4.0 Creative Commons Attribution 4.0 International License&lt;br&gt;&lt;a href=&quot;https://creativecommons.org/licenses/by/4.0/&quot;&gt;https://creativecommons.org/licenses/by/4.0/&lt;/a&gt;&lt;br&gt;&lt;br&gt;Citation: Infographic [Copyright Law – A Conversation]. Annika Rockenberger, 2020,&amp;nbsp;&lt;a href=&quot;https://github.com/arockenberger/cc-c_coursework/blob/master/whatiscc-infographic_v2.pdf&quot;&gt;https://github.com/arockenberger/cc-c_coursework/blob/master/&lt;/a&gt;&lt;u&gt;&lt;font color=&quot;#7f00ff&quot;&gt;copyrightconversation.pdf&lt;/font&gt;&lt;/u&gt;&lt;/font&gt;" id="lcUeHcnI_oaIsX3chBQn-51">
          <mxCell style="text;html=1;strokeColor=none;fillColor=none;align=left;verticalAlign=middle;whiteSpace=wrap;rounded=0;fontFamily=Verdana;fontSize=12;" parent="1" vertex="1">
            <mxGeometry x="80" y="1300" width="220" height="150" as="geometry"/>
          </mxCell>
        </UserObject>
        <mxCell id="lcUeHcnI_oaIsX3chBQn-52" value="" style="shape=image;imageAspect=0;aspect=fixed;verticalLabelPosition=bottom;verticalAlign=top;strokeWidth=2;fontFamily=Verdana;fontSize=12;image=data:image/svg+xml,PHN2ZyB4bWxuczpkYz0iaHR0cDovL3B1cmwub3JnL2RjL2VsZW1lbnRzLzEuMS8iIHhtbG5zOmNjPSJodHRwOi8vd2ViLnJlc291cmNlLm9yZy9jYy8iIHhtbG5zOnJkZj0iaHR0cDovL3d3dy53My5vcmcvMTk5OS8wMi8yMi1yZGYtc3ludGF4LW5zIyIgeG1sbnM6c3ZnPSJodHRwOi8vd3d3LnczLm9yZy8yMDAwL3N2ZyIgeG1sbnM9Imh0dHA6Ly93d3cudzMub3JnLzIwMDAvc3ZnIiB4bWxuczpzb2RpcG9kaT0iaHR0cDovL3NvZGlwb2RpLnNvdXJjZWZvcmdlLm5ldC9EVEQvc29kaXBvZGktMC5kdGQiIHhtbG5zOmlua3NjYXBlPSJodHRwOi8vd3d3Lmlua3NjYXBlLm9yZy9uYW1lc3BhY2VzL2lua3NjYXBlIiB3aWR0aD0iMTIwIiBoZWlnaHQ9IjQyIiBpZD0ic3ZnMjc1OSIgc29kaXBvZGk6dmVyc2lvbj0iMC4zMiIgaW5rc2NhcGU6dmVyc2lvbj0iMC40NStkZXZlbCIgdmVyc2lvbj0iMS4wIiBzb2RpcG9kaTpkb2NuYW1lPSJieS5zdmciIGlua3NjYXBlOm91dHB1dF9leHRlbnNpb249Im9yZy5pbmtzY2FwZS5vdXRwdXQuc3ZnLmlua3NjYXBlIiB2aWV3Qm94PSIwIDAgMTIwIDQyIj4mI3hhOyAgPGRlZnMgaWQ9ImRlZnMyNzYxIi8+JiN4YTsgIDxzb2RpcG9kaTpuYW1lZHZpZXcgaWQ9ImJhc2UiIHBhZ2Vjb2xvcj0iI2ZmZmZmZiIgYm9yZGVyY29sb3I9IiM4YjhiOGIiIGJvcmRlcm9wYWNpdHk9IjEiIGdyaWR0b2xlcmFuY2U9IjEwMDAwIiBndWlkZXRvbGVyYW5jZT0iMTAiIG9iamVjdHRvbGVyYW5jZT0iMTAiIGlua3NjYXBlOnBhZ2VvcGFjaXR5PSIwLjAiIGlua3NjYXBlOnBhZ2VzaGFkb3c9IjIiIGlua3NjYXBlOnpvb209IjEiIGlua3NjYXBlOmN4PSIxNzkiIGlua3NjYXBlOmN5PSI4OS41Njk5MDQiIGlua3NjYXBlOmRvY3VtZW50LXVuaXRzPSJweCIgaW5rc2NhcGU6Y3VycmVudC1sYXllcj0ibGF5ZXIxIiB3aWR0aD0iMTIwcHgiIGhlaWdodD0iNDJweCIgaW5rc2NhcGU6c2hvd3BhZ2VzaGFkb3c9ImZhbHNlIiBpbmtzY2FwZTp3aW5kb3ctd2lkdGg9IjExOTgiIGlua3NjYXBlOndpbmRvdy1oZWlnaHQ9IjYyNCIgaW5rc2NhcGU6d2luZG93LXg9IjM5NiIgaW5rc2NhcGU6d2luZG93LXk9IjI0MiIvPiYjeGE7ICA8bWV0YWRhdGEgaWQ9Im1ldGFkYXRhMjc2NCI+JiN4YTsgICAgPHJkZjpSREY+JiN4YTsgICAgICA8Y2M6V29yayByZGY6YWJvdXQ9IiI+JiN4YTsgICAgICAgIDxkYzpmb3JtYXQ+aW1hZ2Uvc3ZnK3htbDwvZGM6Zm9ybWF0PiYjeGE7ICAgICAgICA8ZGM6dHlwZSByZGY6cmVzb3VyY2U9Imh0dHA6Ly9wdXJsLm9yZy9kYy9kY21pdHlwZS9TdGlsbEltYWdlIi8+JiN4YTsgICAgICA8L2NjOldvcms+JiN4YTsgICAgPC9yZGY6UkRGPiYjeGE7ICA8L21ldGFkYXRhPiYjeGE7ICA8ZyBpbmtzY2FwZTpsYWJlbD0iTGF5ZXIgMSIgaW5rc2NhcGU6Z3JvdXBtb2RlPSJsYXllciIgaWQ9ImxheWVyMSI+JiN4YTsgICAgPGcgdHJhbnNmb3JtPSJtYXRyaXgoMC45OTM3NzI4LDAsMCwwLjk5MzY2OTYsLTE3Ny42OTI2Nyw2LjI1MTI4ZS03KSIgaWQ9ImcyNjAiIGlua3NjYXBlOmV4cG9ydC1maWxlbmFtZT0iL21udC9oZ2ZzL0Jvdi9Eb2N1bWVudHMvV29yay8yMDA3L2NjL2lkZW50aXR5L3NyciBidXR0b25zL2JpZy9ieS5wbmciIGlua3NjYXBlOmV4cG9ydC14ZHBpPSIzMDAuMjMwMTMiIGlua3NjYXBlOmV4cG9ydC15ZHBpPSIzMDAuMjMwMTMiPiYjeGE7CTxwYXRoIGlkPSJwYXRoMzgxN18xXyIgbm9kZXR5cGVzPSJjY2NjY2NjIiBkPSJNIDE4MS45NjU3OSwwLjUxMDc0IEwgMjk2LjAyOTc1LDAuNzEzMzggQyAyOTcuNjIzNSwwLjcxMzM4IDI5OS4wNDczMywwLjQ3NzA1IDI5OS4wNDczMywzLjg5NDA0IEwgMjk4LjkwNzY4LDQxLjQ2MDkzIEwgMTc5LjA4NzM3LDQxLjQ2MDkzIEwgMTc5LjA4NzM3LDMuNzU0MzkgQyAxNzkuMDg3MzcsMi4wNjkzNCAxNzkuMjUwNDYsMC41MTA3NCAxODEuOTY1NzksMC41MTA3NCB6IiBzdHlsZT0iZmlsbDojYWFiMmFiIi8+JiN4YTsmI3hhOwk8cGF0aCBkPSJNIDI5Ny4yOTYzNiwwIEwgMTgxLjA2NzM2LDAgQyAxNzkuODIwNzgsMCAxNzguODA2MTMsMS4wMTQxNiAxNzguODA2MTMsMi4yNjA3NCBMIDE3OC44MDYxMyw0MS43NTczMiBDIDE3OC44MDYxMyw0Mi4wMzkwNiAxNzkuMDM1MTMsNDIuMjY3NTcgMTc5LjMxNjg3LDQyLjI2NzU3IEwgMjk5LjA0NzM0LDQyLjI2NzU3IEMgMjk5LjMyOTA4LDQyLjI2NzU3IDI5OS41NTgwOCw0Mi4wMzkwNSAyOTkuNTU4MDgsNDEuNzU3MzIgTCAyOTkuNTU4MDgsMi4yNjA3NCBDIDI5OS41NTgwNywxLjAxNDE2IDI5OC41NDM0MywwIDI5Ny4yOTYzNiwwIHogTSAxODEuMDY3MzUsMS4wMjE0OCBMIDI5Ny4yOTYzNSwxLjAyMTQ4IEMgMjk3Ljk4MDQzLDEuMDIxNDggMjk4LjUzNjU4LDEuNTc3MTQgMjk4LjUzNjU4LDIuMjYwNzQgQyAyOTguNTM2NTgsMi4yNjA3NCAyOTguNTM2NTgsMTguMjA4OTggMjk4LjUzNjU4LDI5LjcxMDQ1IEwgMjE1LjE5MjM0LDI5LjcxMDQ1IEMgMjEyLjE0NzQyLDM1LjIxNjMxIDIwNi4yODEyMSwzOC45NTQ1OSAxOTkuNTQ4NzksMzguOTU0NTkgQyAxOTIuODEzNDQsMzguOTU0NTkgMTg2Ljk0ODY5LDM1LjIxOTczIDE4My45MDUyNCwyOS43MTA0NSBMIDE3OS44Mjc2LDI5LjcxMDQ1IEMgMTc5LjgyNzYsMTguMjA4OTkgMTc5LjgyNzYsMi4yNjA3NCAxNzkuODI3NiwyLjI2MDc0IEMgMTc5LjgyNzYxLDEuNTc3MTUgMTgwLjM4Mzc2LDEuMDIxNDggMTgxLjA2NzM1LDEuMDIxNDggeiIgaWQ9InBhdGgyNjMiLz4mI3hhOyYjeGE7CTxnIGVuYWJsZS1iYWNrZ3JvdW5kPSJuZXcgICAgIiBpZD0iZzI2NSI+JiN4YTsJCTxwYXRoIGQ9Ik0gMjUzLjA3NzYxLDMyLjk1NjA1IEMgMjUzLjM5NDk5LDMyLjk1NjA1IDI1My42ODUwMywzMi45ODQzNyAyNTMuOTQ3NzMsMzMuMDQwMDMgQyAyNTQuMjA5NDUsMzMuMDk1NjkgMjU0LjQzMzA4LDMzLjE4NzQ5IDI1NC42MjA1OCwzMy4zMTU0MiBDIDI1NC44MDcxLDMzLjQ0MjM3IDI1NC45NTI2MSwzMy42MTIzIDI1NS4wNTUxNSwzMy44MjMyMyBDIDI1NS4xNTc2OSwzNC4wMzUxNCAyNTUuMjA5NDUsMzQuMjk1ODkgMjU1LjIwOTQ1LDM0LjYwNzQxIEMgMjU1LjIwOTQ1LDM0Ljk0MzM1IDI1NS4xMzMyOCwzNS4yMjI2NCAyNTQuOTc5OTYsMzUuNDQ2MjggQyAyNTQuODI3NjIsMzUuNjcwODkgMjU0LjYwMTA1LDM1Ljg1MzUxIDI1NC4zMDIyMywzNS45OTcwNiBDIDI1NC43MTQzNCwzNi4xMTUyMiAyNTUuMDIxOTYsMzYuMzIyMjYgMjU1LjIyNTA4LDM2LjYxODE1IEMgMjU1LjQyODIsMzYuOTE0MDQgMjU1LjUyOTc3LDM3LjI3MDQ5IDI1NS41Mjk3NywzNy42ODc0OSBDIDI1NS41Mjk3NywzOC4wMjM0MyAyNTUuNDY0MzQsMzguMzE0NDQgMjU1LjMzMzQ4LDM4LjU2MDU0IEMgMjU1LjIwMjYyLDM4LjgwNTY2IDI1NS4wMjU4NiwzOS4wMDY4MyAyNTQuODA1MTYsMzkuMTYyMSBDIDI1NC41ODM0OCwzOS4zMTgzNSAyNTQuMzMwNTUsMzkuNDMzNTggMjU0LjA0NzM1LDM5LjUwNzggQyAyNTMuNzYzMTcsMzkuNTgzIDI1My40NzIxNSwzOS42MjAxIDI1My4xNzIzNSwzOS42MjAxIEwgMjQ5LjkzNiwzOS42MjAxIEwgMjQ5LjkzNiwzMi45NTYwNCBMIDI1My4wNzc2MSwzMi45NTYwNCBMIDI1My4wNzc2MSwzMi45NTYwNSB6IE0gMjUyLjg5MDExLDM1LjY1MTM3IEMgMjUzLjE1MTgzLDM1LjY1MTM3IDI1My4zNjY2NywzNS41ODg4NyAyNTMuNTM1NjIsMzUuNDY0ODUgQyAyNTMuNzAzNTksMzUuMzQwODMgMjUzLjc4NzU3LDM1LjEzOTY1IDI1My43ODc1NywzNC44NjAzNiBDIDI1My43ODc1NywzNC43MDUwOSAyNTMuNzU5MjUsMzQuNTc3MTYgMjUzLjcwMzU5LDM0LjQ3ODUyIEMgMjUzLjY0Njk1LDM0LjM3ODkxIDI1My41NzI3MywzNC4zMDE3NiAyNTMuNDc4OTgsMzQuMjQ1MTIgQyAyNTMuMzg1MjMsMzQuMTg5NDYgMjUzLjI3NzgxLDM0LjE1MDM5IDI1My4xNTY3MSwzNC4xMjg5MSBDIDI1My4wMzU2MSwzNC4xMDc0MyAyNTIuOTA4NjYsMzQuMDk2NjggMjUyLjc3ODc4LDM0LjA5NjY4IEwgMjUxLjQwNDc2LDM0LjA5NjY4IEwgMjUxLjQwNDc2LDM1LjY1MTM3IEwgMjUyLjg5MDExLDM1LjY1MTM3IHogTSAyNTIuOTc2MDQsMzguNDc5NDkgQyAyNTMuMTE5NTksMzguNDc5NDkgMjUzLjI1NjMxLDM4LjQ2NTgyIDI1My4zODcxNywzOC40Mzc1IEMgMjUzLjUxODAzLDM4LjQwOTE4IDI1My42MzMyNiwzOC4zNjIzIDI1My43MzM4NSwzOC4yOTc4NSBDIDI1My44MzM0NiwzOC4yMzI0MiAyNTMuOTEyNTYsMzguMTQzNTUgMjUzLjk3MjEzLDM4LjAzMTI1IEMgMjU0LjAzMTcsMzcuOTE5OTIgMjU0LjA2MSwzNy43NzYzNyAyNTQuMDYxLDM3LjYwMjU0IEMgMjU0LjA2MSwzNy4yNjA3NCAyNTMuOTY0MzIsMzcuMDE2NiAyNTMuNzcwOTYsMzYuODcwMTIgQyAyNTMuNTc3NiwzNi43MjQ2MSAyNTMuMzIxNzQsMzYuNjUxMzcgMjUzLjAwNDM2LDM2LjY1MTM3IEwgMjUxLjQwNDc1LDM2LjY1MTM3IEwgMjUxLjQwNDc1LDM4LjQ3OTQ5IEwgMjUyLjk3NjA0LDM4LjQ3OTQ5IHoiIGlkPSJwYXRoMjY3IiBzdHlsZT0iZmlsbDojZmZmZmZmIi8+JiN4YTsmI3hhOwkJPHBhdGggZD0iTSAyNTUuNzg4NTQsMzIuOTU2MDUgTCAyNTcuNDMyMDksMzIuOTU2MDUgTCAyNTguOTkyNjQsMzUuNTg3ODkgTCAyNjAuNTQzNDIsMzIuOTU2MDUgTCAyNjIuMTc3MjEsMzIuOTU2MDUgTCAyNTkuNzAzNTgsMzcuMDYyNSBMIDI1OS43MDM1OCwzOS42MjAxMiBMIDI1OC4yMzQ4MywzOS42MjAxMiBMIDI1OC4yMzQ4MywzNy4wMjUzOSBMIDI1NS43ODg1NCwzMi45NTYwNSB6IiBpZD0icGF0aDI2OSIgc3R5bGU9ImZpbGw6I2ZmZmZmZiIvPiYjeGE7JiN4YTsJPC9nPiYjeGE7JiN4YTsJPGcgaWQ9Imc1OTA4XzFfIiB0cmFuc2Zvcm09Im1hdHJpeCgwLjg3MjkyMSwwLDAsMC44NzI5MjEsNTAuMTI1MzYsMTQzLjIxNDQpIj4mI3hhOwkJJiN4YTsJCQk8cGF0aCBpZD0icGF0aDU5MDZfMV8iIGN4PSIyOTYuMzU0MTYiIHJ5PSIyMi45Mzk1NDgiIGN5PSIyNjQuMzU3NyIgdHlwZT0iYXJjIiByeD0iMjIuOTM5NTQ4IiBkPSJNIDE4Ni45MDA2NSwtMTQxLjQ2MDAyIEMgMTg2LjkwNjIzLC0xMzIuNzc5MjMgMTc5Ljg3Mjc5LC0xMjUuNzM4NTIgMTcxLjE5MjU3LC0xMjUuNzMyOTEgQyAxNjIuNTEyMzUsLTEyNS43MjczNiAxNTUuNDcwNTEsLTEzMi43NjAyNSAxNTUuNDY1NDcsLTE0MS40NDA5OCBDIDE1NS40NjU0NywtMTQxLjQ0NzE0IDE1NS40NjU0NywtMTQxLjQ1MzMxIDE1NS40NjU0NywtMTQxLjQ2MDAyIEMgMTU1LjQ2MDQzLC0xNTAuMTQwODEgMTYyLjQ5MzMzLC0xNTcuMTgxNTIgMTcxLjE3MzU1LC0xNTcuMTg2NTggQyAxNzkuODU0OSwtMTU3LjE5MjEzIDE4Ni44OTU2MSwtMTUwLjE1OTI0IDE4Ni45MDA2NSwtMTQxLjQ3ODQ1IEMgMTg2LjkwMDY1LC0xNDEuNDcyOSAxODYuOTAwNjUsLTE0MS40NjYxOSAxODYuOTAwNjUsLTE0MS40NjAwMiB6IiBzdHlsZT0iZmlsbDojZmZmZmZmIi8+JiN4YTsmI3hhOwkJPGcgaWQ9Imc1NzA2XzFfIiB0cmFuc2Zvcm09InRyYW5zbGF0ZSgtMjg5LjYxNTcsOTkuMDY1MykiPiYjeGE7CQkJPHBhdGggaWQ9InBhdGg1NzA4XzFfIiBkPSJNIDQ3My41NzU3NCwtMjUzLjMyNzUxIEMgNDc3LjA2MTE1LC0yNDkuODQyMSA0NzguODA0MTMsLTI0NS41NzM2IDQ3OC44MDQxMywtMjQwLjUyNTMyIEMgNDc4LjgwNDEzLC0yMzUuNDc1OTQgNDc3LjA5MTM2LC0yMzEuMjUzMjkgNDczLjY2NTgyLC0yMjcuODU3NDEgQyA0NzAuMDMwNTEsLTIyNC4yODA4MSA0NjUuNzM0LC0yMjIuNDkzMDkgNDYwLjc3NjM1LC0yMjIuNDkzMDkgQyA0NTUuODc4NTgsLTIyMi40OTMwOSA0NTEuNjU2NDgsLTIyNC4yNjYyOCA0NDguMTExMjIsLTIyNy44MTI2MSBDIDQ0NC41NjU0MSwtMjMxLjM1ODQ1IDQ0Mi43OTI3NywtMjM1LjU5NTYzIDQ0Mi43OTI3NywtMjQwLjUyNTMyIEMgNDQyLjc5Mjc3LC0yNDUuNDUzOTEgNDQ0LjU2NTQxLC0yNDkuNzIxMyA0NDguMTExMjIsLTI1My4zMjc1MSBDIDQ1MS41NjY0MiwtMjU2LjgxNDAyIDQ1NS43ODg1LC0yNTguNTU3IDQ2MC43NzYzNSwtMjU4LjU1NyBDIDQ2NS44MjQ2NSwtMjU4LjU1NzAxIDQ3MC4wOTAzOSwtMjU2LjgxNDAzIDQ3My41NzU3NCwtMjUzLjMyNzUxIHogTSA0NTAuNDU3NzYsLTI1MC45ODI2NyBDIDQ0Ny41MTEwNCwtMjQ4LjAwNjI5IDQ0Ni4wMzgyMywtMjQ0LjUxOTc4IDQ0Ni4wMzgyMywtMjQwLjUyMDMzIEMgNDQ2LjAzODIzLC0yMzYuNTIxOTggNDQ3LjQ5NjUxLC0yMzMuMDY1MDcgNDUwLjQxMjQ3LC0yMzAuMTQ5NjYgQyA0NTMuMzI4OTcsLTIyNy4yMzMxNiA0NTYuODAwOTYsLTIyNS43NzU0NSA0NjAuODI5NTIsLTIyNS43NzU0NSBDIDQ2NC44NTgwOCwtMjI1Ljc3NTQ1IDQ2OC4zNTk2NywtMjI3LjI0NzY4IDQ3MS4zMzYwNSwtMjMwLjE5Mzg1IEMgNDc0LjE2MTk4LC0yMzIuOTMwMyA0NzUuNTc1NDksLTIzNi4zNzA5MSA0NzUuNTc1NDksLTI0MC41MjAzMyBDIDQ3NS41NzU0OSwtMjQ0LjYzODM3IDQ3NC4xMzkwMywtMjQ4LjEzMzc5IDQ3MS4yNjc4MSwtMjUxLjAwNTAxIEMgNDY4LjM5NzE0LC0yNTMuODc1NjggNDY0LjkxNzksLTI1NS4zMTE1OSA0NjAuODI5NTIsLTI1NS4zMTE1OSBDIDQ1Ni43NDExMiwtMjU1LjMxMTU4IDQ1My4yODMxNCwtMjUzLjg2ODQxIDQ1MC40NTc3NiwtMjUwLjk4MjY3IHogTSA0NTguMjEyMjUsLTI0Mi4yNzk0OCBDIDQ1Ny43NjE5NiwtMjQzLjI2MTE3IDQ1Ny4wODc5NSwtMjQzLjc1MjMyIDQ1Ni4xODkwMywtMjQzLjc1MjMyIEMgNDU0LjU5OTg2LC0yNDMuNzUyMzIgNDUzLjgwNTU4LC0yNDIuNjgyMjUgNDUzLjgwNTU4LC0yNDAuNTQzMjEgQyA0NTMuODA1NTgsLTIzOC40MDM2OCA0NTQuNTk5ODYsLTIzNy4zMzQ3MSA0NTYuMTg5MDMsLTIzNy4zMzQ3MSBDIDQ1Ny4yMzg0MSwtMjM3LjMzNDcxIDQ1Ny45ODc5NSwtMjM3Ljg1NTQ2IDQ1OC40Mzc2OSwtMjM4Ljg5OTIyIEwgNDYwLjY0MDQ1LC0yMzcuNzI2MjUgQyA0NTkuNTkwNTIsLTIzNS44NjA3NyA0NTguMDE1MzYsLTIzNC45Mjc3OSA0NTUuOTE0OTYsLTIzNC45Mjc3OSBDIDQ1NC4yOTUwNiwtMjM0LjkyNzc5IDQ1Mi45OTczMywtMjM1LjQyNDQ5IDQ1Mi4wMjI5LC0yMzYuNDE2OCBDIDQ1MS4wNDY4LC0yMzcuNDEwMjEgNDUwLjU2MDE2LC0yMzguNzc5NTMgNDUwLjU2MDE2LC0yNDAuNTI1MzIgQyA0NTAuNTYwMTYsLTI0Mi4yNDAzNSA0NTEuMDYyNDUsLTI0My42MDE4NiA0NTIuMDY3NjQsLTI0NC42MTAzNCBDIDQ1My4wNzI4MywtMjQ1LjYxODg4IDQ1NC4zMjQ2NiwtMjQ2LjEyMjkxIDQ1NS44MjU0NSwtMjQ2LjEyMjkxIEMgNDU4LjA0NTU3LC0yNDYuMTIyOTEgNDU5LjYzNTI2LC0yNDUuMjQ4MDMgNDYwLjU5NjI2LC0yNDMuNTAwMDUgTCA0NTguMjEyMjUsLTI0Mi4yNzk0OCB6IE0gNDY4LjU3NTYyLC0yNDIuMjc5NDggQyA0NjguMTI0NzUsLTI0My4yNjExNyA0NjcuNDY0MTcsLTI0My43NTIzMiA0NjYuNTkzMiwtMjQzLjc1MjMyIEMgNDY0Ljk3MjE3LC0yNDMuNzUyMzIgNDY0LjE2MTA3LC0yNDIuNjgyMjUgNDY0LjE2MTA3LC0yNDAuNTQzMjEgQyA0NjQuMTYxMDcsLTIzOC40MDM2OCA0NjQuOTcyMTcsLTIzNy4zMzQ3MSA0NjYuNTkzMiwtMjM3LjMzNDcxIEMgNDY3LjY0NDI5LC0yMzcuMzM0NzEgNDY4LjM4MDM3LC0yMzcuODU1NDYgNDY4LjgwMDQ4LC0yMzguODk5MjIgTCA0NzEuMDUyNDksLTIzNy43MjYyNSBDIDQ3MC4wMDQyMSwtMjM1Ljg2MDc3IDQ2OC40MzEyNywtMjM0LjkyNzc5IDQ2Ni4zMzQ3OCwtMjM0LjkyNzc5IEMgNDY0LjcxNzEsLTIzNC45Mjc3OSA0NjMuNDIyMTgsLTIzNS40MjQ0OSA0NjIuNDQ4MzEsLTIzNi40MTY4IEMgNDYxLjQ3NjE0LC0yMzcuNDEwMjEgNDYwLjk4ODk2LC0yMzguNzc5NTMgNDYwLjk4ODk2LC0yNDAuNTI1MzIgQyA0NjAuOTg4OTYsLTI0Mi4yNDAzNSA0NjEuNDgzNDEsLTI0My42MDE4NiA0NjIuNDcxODEsLTI0NC42MTAzNCBDIDQ2My40NTk2NiwtMjQ1LjYxODg4IDQ2NC43MTcxMSwtMjQ2LjEyMjkxIDQ2Ni4yNDUzMSwtMjQ2LjEyMjkxIEMgNDY4LjQ2MTUsLTI0Ni4xMjI5MSA0NzAuMDQ4OTYsLTI0NS4yNDgwMyA0NzEuMDA2NiwtMjQzLjUwMDA1IEwgNDY4LjU3NTYyLC0yNDIuMjc5NDggeiIvPiYjeGE7JiN4YTsJCTwvZz4mI3hhOyYjeGE7CTwvZz4mI3hhOyYjeGE7CTxnIGlkPSJnMjc1Ij4mI3hhOwkJPGNpcmNsZSBjeD0iMjU1LjU1MTI0IiBjeT0iMTUuMzEzNDgiIHI9IjEwLjgwNjY0IiBpZD0iY2lyY2xlMjc3IiBzb2RpcG9kaTpjeD0iMjU1LjU1MTI0IiBzb2RpcG9kaTpjeT0iMTUuMzEzNDgiIHNvZGlwb2RpOnJ4PSIxMC44MDY2NCIgc29kaXBvZGk6cnk9IjEwLjgwNjY0IiBzdHlsZT0iZmlsbDojZmZmZmZmIi8+JiN4YTsmI3hhOwkJPGcgaWQ9ImcyNzkiPiYjeGE7CQkJPHBhdGggZD0iTSAyNTguNjc4MTksMTIuMTg3MDEgQyAyNTguNjc4MTksMTEuNzcwNTEgMjU4LjM0MDMsMTEuNDMzMSAyNTcuOTI1MjYsMTEuNDMzMSBMIDI1My4xNTE4MiwxMS40MzMxIEMgMjUyLjczNjc4LDExLjQzMzEgMjUyLjM5ODg5LDExLjc3MDUgMjUyLjM5ODg5LDEyLjE4NzAxIEwgMjUyLjM5ODg5LDE2Ljk1OTk2IEwgMjUzLjcyOTk0LDE2Ljk1OTk2IEwgMjUzLjcyOTk0LDIyLjYxMTgyIEwgMjU3LjM0NzEzLDIyLjYxMTgyIEwgMjU3LjM0NzEzLDE2Ljk1OTk2IEwgMjU4LjY3ODE4LDE2Ljk1OTk2IEwgMjU4LjY3ODE4LDEyLjE4NzAxIEwgMjU4LjY3ODE5LDEyLjE4NzAxIHoiIGlkPSJwYXRoMjgxIi8+JiN4YTsmI3hhOwkJCTxjaXJjbGUgY3g9IjI1NS41Mzg1NCIgY3k9IjkuMTcyMzYwNCIgcj0iMS42MzI4MSIgaWQ9ImNpcmNsZTI4MyIgc29kaXBvZGk6Y3g9IjI1NS41Mzg1NCIgc29kaXBvZGk6Y3k9IjkuMTcyMzYwNCIgc29kaXBvZGk6cng9IjEuNjMyODEiIHNvZGlwb2RpOnJ5PSIxLjYzMjgxIi8+JiN4YTsmI3hhOwkJPC9nPiYjeGE7JiN4YTsJCTxwYXRoIGNsaXAtcnVsZT0iZXZlbm9kZCIgZD0iTSAyNTUuNTIzOSwzLjQwNzIzIEMgMjUyLjI5MTQ4LDMuNDA3MjMgMjQ5LjU1NTE1LDQuNTM1MTYgMjQ3LjMxNTg5LDYuNzkxMDIgQyAyNDUuMDE4MDQsOS4xMjQ1MiAyNDMuODY5NiwxMS44ODY3MiAyNDMuODY5NiwxNS4wNzU2OSBDIDI0My44Njk2LDE4LjI2NDY2IDI0NS4wMTgwNCwyMS4wMDczMyAyNDcuMzE1ODksMjMuMzAyMjUgQyAyNDkuNjEzNzQsMjUuNTk2NjggMjUyLjM1MDA3LDI2Ljc0NDE0IDI1NS41MjM5LDI2Ljc0NDE0IEMgMjU4LjczNjc5LDI2Ljc0NDE0IDI2MS41MjE5NSwyNS41ODc4OSAyNjMuODc3NDIsMjMuMjcyOTUgQyAyNjYuMDk3MTUsMjEuMDc1NjggMjY3LjIwNzUsMTguMzQzMjYgMjY3LjIwNzUsMTUuMDc1NjggQyAyNjcuMjA3NSwxMS44MDgxIDI2Ni4wNzc2Miw5LjA0Njg3IDI2My44MTk4LDYuNzkxMDEgQyAyNjEuNTYwMDMsNC41MzUxNiAyNTguNzk1MzgsMy40MDcyMyAyNTUuNTIzOSwzLjQwNzIzIHogTSAyNTUuNTUzMTksNS41MDY4NCBDIDI1OC4yMDE2Myw1LjUwNjg0IDI2MC40NTA2NSw2LjQ0MDkyIDI2Mi4zMDAyNiw4LjMwODExIEMgMjY0LjE2OTQsMTAuMTU1MjggMjY1LjEwMzk3LDEyLjQxMTE0IDI2NS4xMDM5NywxNS4wNzU2OSBDIDI2NS4xMDM5NywxNy43NTkyOCAyNjQuMTg4OTMsMTkuOTg2MzMgMjYyLjM1ODg1LDIxLjc1NTg3IEMgMjYwLjQzMDE0LDIzLjY2MjEyIDI1OC4xNjI1NiwyNC42MTQ3NiAyNTUuNTUzMTksMjQuNjE0NzYgQyAyNTIuOTQyODQsMjQuNjE0NzYgMjUwLjY5MzgxLDIzLjY3MTg5IDI0OC44MDYxMiwyMS43ODUxNyBDIDI0Ni45MTY0NywxOS44OTg0NSAyNDUuOTczMTEsMTcuNjYyMTIgMjQ1Ljk3MzExLDE1LjA3NTcgQyAyNDUuOTczMTEsMTIuNDg4NzkgMjQ2LjkyNzIxLDEwLjIzMzQxIDI0OC44MzU0MSw4LjMwODEyIEMgMjUwLjY2NTUsNi40NDA5MiAyNTIuOTA0NzUsNS41MDY4NCAyNTUuNTUzMTksNS41MDY4NCB6IiBpZD0icGF0aDI4NSIgc3R5bGU9ImZpbGwtcnVsZTpldmVub2RkIi8+JiN4YTsmI3hhOwk8L2c+JiN4YTsmI3hhOzwvZz4mI3hhOyAgPC9nPiYjeGE7PC9zdmc+;" parent="1" vertex="1">
          <mxGeometry x="80" y="1240" width="171.43" height="60" as="geometry"/>
        </mxCell>
      </root>
    </mxGraphModel>
  </diagram>
</mxfile>
